# xmcd
#
# Track frame offsets:
#	150
#	17652
#	33632
#	51470
#	70745
#	92922
#	104197
#	118152
#	142125
#	156327
#	170015
#	184005
#	207352
#	225725
#
# Disc length: 3249 seconds
#
# Revision: 1
# Processed by: cddbd v1.5.1PL0 Copyright (c) Steve Scherf et al.
# Submitted via: CDex 1.50Beta5
#
DISCID=d70caf0e
DTITLE=さまざまなアーティスト - スーパーロボット魂2003春の陣 Disc 2
DYEAR=1900
DGENRE=
TTITLE0=鮎川麻弥/Z・刻を越えて
TTITLE1=鮎川麻弥/星空のBelieve
TTITLE2=影山ヒロノブ/アニメじゃない-夢を忘れた古い地球人よ-
TTITLE3=MIQ/MEN OF DESTINY
TTITLE4=森口博子/ETERNAL WIND-ほほえみは光る風の中-
TTITLE5=たいらいさお/銀河旋風ブライガー
TTITLE6=山形ユキオ/銀河烈風バクシンガー
TTITLE7=高橋洋子/魂のルフラン
TTITLE8=堀江美都子/ボルテスVの歌
TTITLE9=水木一郎/コン・バトラーVのテーマ
TTITLE10=水木一郎+影山ヒロノブ/おれはグレートマジンガー
TTITLE11=水木一郎+堀江美都子+MIQ+影山ヒロノブ/鋼の魂
TTITLE12=水木一郎+堀江美都子+MIQ+影山ヒロノブ/熱風!疾風!サイバスター
TTITLE13=ALL CAST/マジンガーZ
EXTD=
EXTT0=
EXTT1=
EXTT2=
EXTT3=
EXTT4=
EXTT5=
EXTT6=
EXTT7=
EXTT8=
EXTT9=
EXTT10=
EXTT11=
EXTT12=
EXTT13=
PLAYORDER=
